<svg version="1.1" id="Layer_1" xmlns="http://www.w3.org/2000/svg" xmlns:xlink="http://www.w3.org/1999/xlink" x="0px" y="0px"
	 width="100%" viewBox="0 0 432 416" enable-background="new 0 0 432 416" xml:space="preserve">
<path fill="#FFFFFF" opacity="1.000000" stroke="none"
	d="
M278.243408,394.361115
	C216.193893,416.155701 157.975128,408.535706 104.055740,372.156708
	C61.057693,343.146179 34.618027,302.338318 24.557650,251.401596
	C16.443575,210.319229 22.021709,170.681213 40.757465,133.351059
	C64.990303,85.068214 103.369873,52.924393 154.938293,36.636539
	C161.144241,34.676399 161.235626,34.543816 159.430649,28.246223
	C158.486176,24.950937 156.995163,21.774809 156.947403,17.008400
	C176.910568,25.922638 196.202301,34.537056 216.753433,43.713837
	C199.760513,59.090935 183.652054,73.667671 166.903381,88.823746
	C164.718536,81.814896 167.092606,75.704338 165.139694,69.763000
	C160.068970,70.346817 155.745361,72.488899 151.391129,74.441872
	C101.308105,96.905350 69.390251,134.839172 59.643162,188.787582
	C48.061089,252.892319 71.609131,304.268402 123.113625,342.783447
	C154.501236,366.255096 190.838867,374.995850 229.433563,370.348816
	C281.751251,364.049408 321.409119,337.146515 348.086151,291.608429
	C364.163757,264.163696 370.715240,234.242508 367.425232,202.775406
	C362.272522,153.492401 338.562225,114.858574 297.457703,87.077095
	C292.226746,83.541641 286.684448,80.409767 281.067841,77.514961
	C271.827026,72.752243 268.059021,75.102867 268.029510,85.394653
	C267.977966,103.393684 267.997650,121.392952 268.002686,139.392120
	C268.011322,170.224121 268.381500,201.061111 267.943726,231.886673
	C267.546631,259.848114 255.213745,281.222290 229.188553,292.545593
	C203.705704,303.632965 179.496506,299.817108 158.368805,281.470734
	C145.225357,270.057526 138.261017,255.081558 137.049332,237.701736
	C136.757599,233.517120 135.186905,232.488892 131.333633,232.178024
	C124.088158,231.593460 116.893967,230.373169 109.693398,229.419205
	C104.453781,264.651062 157.081055,319.562103 196.307373,319.774384
	C196.759094,315.645172 195.574493,311.655060 194.925919,307.659332
	C194.382538,304.311707 195.079300,302.588104 198.904739,302.772491
	C203.375137,302.987976 207.863876,302.822845 213.270844,302.822845
	C213.270844,317.326538 213.270844,331.672913 213.270844,346.019287
	C213.720139,346.054077 214.169434,346.088837 214.618729,346.123627
	C218.683716,336.899353 220.259033,326.941559 222.553238,317.209595
	C223.619553,312.686310 224.308487,308.053955 224.853012,303.433838
	C225.334030,299.352417 227.415604,297.597900 231.752411,297.741455
	C231.958847,305.119080 229.651947,312.112579 229.012878,319.239868
	C263.937958,323.676941 319.309265,264.525635 315.303314,226.790436
	C307.980865,227.771042 300.664429,228.807648 293.331879,229.714081
	C287.880493,230.387985 282.380524,230.711014 276.955200,231.538162
	C273.389252,232.081848 272.751373,230.579529 272.649628,227.466599
	C272.166656,212.689026 272.098328,212.686829 286.727173,212.683243
	C305.388031,212.678665 324.048859,212.682129 342.877014,211.702789
	C332.038849,209.592819 321.225494,207.343399 310.355560,205.412231
	C299.545532,203.491684 288.695740,201.785660 277.723450,200.981354
	C275.491760,200.817764 272.638855,200.790405 272.878021,197.342453
	C273.142029,193.536743 276.168091,194.761734 278.234253,194.897873
	C288.707153,195.587891 299.072723,197.186340 309.419556,198.898239
	C314.521576,199.742371 314.932556,199.308929 313.750519,194.124344
	C308.428528,170.781647 295.779388,152.006500 277.428009,137.040100
	C273.721069,134.016907 272.137451,131.011520 272.652588,126.478073
	C273.023376,123.214577 272.219025,119.855095 273.484131,115.912750
	C278.903351,118.179665 283.348236,121.643860 287.608795,125.139503
	C310.604004,144.006348 325.629608,167.707077 330.453369,197.368927
	C331.098083,201.333389 332.834412,203.308853 336.937439,204.163651
	C343.930511,205.620529 350.792206,207.735336 357.666260,209.721985
	C360.308105,210.485519 362.832672,211.654861 365.763763,212.774124
	C363.985504,215.277328 361.717621,215.556183 359.790192,216.118866
	C352.280396,218.311172 344.744476,220.441162 337.140625,222.271683
	C333.788422,223.078690 332.129852,224.360840 331.793732,228.124496
	C329.664642,251.965256 321.449188,273.493683 306.184479,292.059052
	C286.682648,315.777802 261.871002,330.541046 231.395493,335.332855
	C227.070740,336.012878 224.349976,337.252808 223.264267,342.230652
	C221.495346,350.340759 218.725922,358.241882 215.595383,365.974121
	C215.038422,367.349823 214.744492,368.853241 213.328293,369.738159
	C210.700790,369.422516 210.456741,367.115051 209.858932,365.367310
	C207.380081,358.120331 204.526581,350.934998 202.884338,343.490173
	C201.647263,337.882080 198.735275,336.047211 193.514359,335.327911
	C174.851730,332.756805 157.815628,325.806213 142.599106,314.753937
	C115.260796,294.897186 98.730492,268.297241 93.598190,234.773117
	C93.346405,233.128479 92.771576,231.489120 92.799728,229.855118
	C92.855309,226.629425 91.061630,225.756668 88.279564,225.060516
	C80.368904,223.081009 72.536865,220.784271 64.688782,218.559799
	C62.793625,218.022629 60.805656,217.548904 59.509586,215.670166
	C60.431187,213.501144 62.557735,213.295502 64.372841,212.795380
	C71.917473,210.716568 79.423561,208.401047 87.083801,206.875427
	C91.579651,205.980026 93.034866,203.578644 93.646477,199.543320
	C97.135117,176.525726 106.571175,156.188049 122.214714,138.978790
	C141.977921,117.237518 166.620804,104.238426 195.649643,99.737648
	C199.048279,99.210709 200.571411,97.619766 201.408096,94.576004
	C203.837418,85.738205 206.810898,77.076248 210.192215,68.557877
	C210.609482,67.506691 211.009827,66.347046 212.474655,65.677734
	C214.049103,66.886436 214.555878,68.834343 215.151413,70.629951
	C217.875793,78.844025 220.715607,87.029877 223.077072,95.349869
	C224.185013,99.253502 226.824799,99.649727 229.913376,99.633224
	C233.804352,99.612442 232.616425,96.504814 232.657043,94.452469
	C232.788956,87.788666 232.638687,81.119797 232.723328,74.454475
	C233.063705,47.647915 256.890167,30.630173 281.791534,40.490112
	C338.909210,63.106415 376.849457,103.983604 395.380127,162.685745
	C402.127228,184.059372 404.659851,206.039764 403.124817,228.283035
	C400.236603,270.134949 385.066681,307.190308 357.700226,339.102539
	C336.101990,364.288452 309.604889,382.501801 278.243408,394.361115
M152.159378,206.429443
	C150.965271,216.246872 150.965271,216.233109 141.096222,216.227997
	C121.827599,216.218033 102.558975,216.225082 83.290352,216.225082
	C100.493141,221.771255 118.123260,224.660828 135.899734,226.796280
	C138.243118,227.077789 139.543350,225.721558 140.789459,224.017273
	C143.638962,220.120056 147.371124,217.473892 152.142731,216.391342
	C156.918900,215.307755 161.775223,216.057373 166.583649,215.719025
	C170.422775,215.448868 172.079056,217.467346 172.095215,221.112915
	C172.113647,225.276840 172.034943,229.442459 172.125305,233.604584
	C172.505600,251.120743 185.478165,263.983917 202.561722,263.838440
	C220.178131,263.688446 232.730072,250.840408 232.739212,232.876923
	C232.755981,199.897049 232.736862,166.917191 232.735001,133.937317
	C232.734726,129.273697 232.731400,124.609970 232.759827,119.946480
	C232.777267,117.084175 231.790024,115.515640 228.474380,116.436005
	C227.757980,121.940170 231.427124,127.094666 229.620621,132.821777
	C225.467697,132.261047 221.531006,131.236801 217.619308,131.324768
	C212.612991,131.437317 211.463699,129.299286 211.548660,124.734772
	C211.785202,112.027771 211.630814,99.313492 211.630814,86.602089
	C206.082794,99.916481 202.772522,113.608818 200.314194,127.516022
	C199.711014,130.928360 198.707916,133.652405 194.190582,132.692856
	C192.697800,127.036964 196.908295,121.719086 195.027802,115.571083
	C168.358200,120.564018 146.482300,133.040909 129.914383,154.309418
	C118.974380,168.353271 111.822357,184.106522 109.340317,202.325348
	C124.382057,200.744873 138.376099,197.976562 152.441772,197.917801
	C153.464478,201.035873 152.029434,203.251389 152.159378,206.429443
z"/>
</svg>
